<svg width="21" height="20" viewBox="0 0 21 20" fill="none" xmlns="http://www.w3.org/2000/svg">
<path d="M15.7113 5V13.125C15.7113 13.2908 15.6454 13.4497 15.5282 13.5669C15.411 13.6842 15.252 13.75 15.0863 13.75C14.9205 13.75 14.7616 13.6842 14.6443 13.5669C14.5271 13.4497 14.4613 13.2908 14.4613 13.125V6.50859L5.52847 15.4422C5.4112 15.5595 5.25214 15.6253 5.08629 15.6253C4.92043 15.6253 4.76137 15.5595 4.6441 15.4422C4.52682 15.3249 4.46094 15.1659 4.46094 15C4.46094 14.8341 4.52682 14.6751 4.6441 14.5578L13.5777 5.625H6.96129C6.79552 5.625 6.63655 5.55915 6.51934 5.44194C6.40213 5.32473 6.33629 5.16576 6.33629 5C6.33629 4.83424 6.40213 4.67527 6.51934 4.55806C6.63655 4.44085 6.79552 4.375 6.96129 4.375H15.0863C15.252 4.375 15.411 4.44085 15.5282 4.55806C15.6454 4.67527 15.7113 4.83424 15.7113 5Z" fill="white"/>
</svg>
