<svg width="149" height="18" viewBox="0 0 149 18" fill="none" xmlns="http://www.w3.org/2000/svg">
<path d="M32.9359 0L25.1663 13.4153C22.663 17.7285 20.9322 17.9407 16.4519 17.9407L24.225 4.52199C26.7249 0.208812 28.459 0 32.9359 0ZM18.8743 4.78557H14.873L16.4115 2.04362C17.265 0.513473 18.0882 0 19.7042 0H26.3741C23.5907 4.74449 21.2426 4.78557 18.8776 4.78557" fill="#454242"/>
<path d="M0 17.9964L7.77304 4.57765C10.2763 0.2679 12.0071 0.0556641 16.484 0.0556641L8.71094 13.471C6.20764 17.7842 4.47692 17.9998 0 17.9998M14.0617 13.2108H18.0629L16.5278 15.9528C15.6709 17.4795 14.8511 17.9964 13.2351 17.9964H6.56525C9.34857 13.2485 11.6967 13.2108 14.0583 13.2108" fill="#31BBAC"/>
<path fill-rule="evenodd" clip-rule="evenodd" d="M98.8958 2.44739H103.043V10.8724C103.043 11.5332 103.456 12.5344 104.765 12.5344H108.24C109.544 12.5344 109.962 11.5332 109.962 10.8724V2.44739H114.104V10.7022C114.104 12.5344 114.226 15.558 109.962 15.558H103.048C98.7786 15.558 98.9009 12.5344 98.9009 10.7022V2.44739H98.8958ZM82.2662 2.44739H93.2099C95.9765 2.44739 97.3266 4.56992 97.3266 5.7263V15.558H93.1794V7.47339C93.1794 6.08173 92.8074 5.44096 91.009 5.44096H89.5162V15.558H85.374V5.44096H83.9169C82.9591 5.44096 81.9401 5.78638 81.9401 7.15301V15.553H77.798V5.94657C77.798 3.59876 79.7748 2.44238 82.2713 2.44238M55.2226 2.44739H59.3647V15.558H55.2226V2.44739ZM38.4707 2.44739H42.6128V10.8724C42.6128 11.5332 43.0306 12.5344 44.3349 12.5344H53.6432V15.558H42.6179C38.3535 15.558 38.4758 12.5344 38.4758 10.7022V2.44739H38.4707ZM70.6244 5.44096V15.558H66.4823V5.44096H61.1174V2.44739H76.1625V5.44096H70.6244ZM126.087 11.7585C126.765 12.0589 126.714 12.5344 125.904 12.5344H115.704V15.558H126.316C132.502 15.558 133.24 10.8074 129.012 9.37065L120.381 6.31201C119.703 6.01665 119.759 5.471 120.508 5.471H131.228V2.44238H120.615C113.946 2.44238 114.822 8.0691 118.659 9.10534L126.087 11.7535V11.7585Z" fill="#454242"/>
<path fill-rule="evenodd" clip-rule="evenodd" d="M138.102 15.5573H132.514L143.582 6.58366C144.149 6.32828 144.266 5.59216 143.633 5.47198H132.723V2.44238H143.353C150.385 2.44238 148.788 8.15605 146.328 9.20764L138.097 15.5523L138.102 15.5573Z" fill="#31BBAC"/>
</svg>
