<svg width="25" height="8" viewBox="0 0 25 8" fill="none" xmlns="http://www.w3.org/2000/svg">
<path id="Vector" d="M24.0332 6.94737C24.0332 7.09394 23.9525 7.2345 23.8089 7.33814C23.6652 7.44178 23.4704 7.5 23.2672 7.5H0.799161C0.596016 7.5 0.401192 7.44178 0.257547 7.33814C0.113902 7.2345 0.0332031 7.09394 0.0332031 6.94737C0.0332031 6.8008 0.113902 6.66024 0.257547 6.5566C0.401192 6.45296 0.596016 6.39474 0.799161 6.39474H23.2672C23.4704 6.39474 23.6652 6.45296 23.8089 6.5566C23.9525 6.66024 24.0332 6.8008 24.0332 6.94737ZM0.799161 1.60526H23.2672C23.4704 1.60526 23.6652 1.54704 23.8089 1.4434C23.9525 1.33976 24.0332 1.1992 24.0332 1.05263C24.0332 0.906065 23.9525 0.765501 23.8089 0.661862C23.6652 0.558224 23.4704 0.5 23.2672 0.5H0.799161C0.596016 0.5 0.401192 0.558224 0.257547 0.661862C0.113902 0.765501 0.0332031 0.906065 0.0332031 1.05263C0.0332031 1.1992 0.113902 1.33976 0.257547 1.4434C0.401192 1.54704 0.596016 1.60526 0.799161 1.60526Z" fill="#454242"/>
</svg>
